<?xml version="1.0" encoding="UTF-8" standalone="no"?>
<!-- Created with Inkscape (http://www.inkscape.org/) -->

<svg
   width="206.59695mm"
   height="180.73349mm"
   viewBox="0 0 206.59695 180.73349"
   version="1.1"
   id="svg5"
   inkscape:version="1.1.2 (0a00cf5339, 2022-02-04)"
   sodipodi:docname="wit.svg"
   xmlns:inkscape="http://www.inkscape.org/namespaces/inkscape"
   xmlns:sodipodi="http://sodipodi.sourceforge.net/DTD/sodipodi-0.dtd"
   xmlns="http://www.w3.org/2000/svg"
   xmlns:svg="http://www.w3.org/2000/svg">
  <sodipodi:namedview
     id="namedview7"
     pagecolor="#ffffff"
     bordercolor="#000000"
     borderopacity="0.25"
     inkscape:pageshadow="2"
     inkscape:pageopacity="0.0"
     inkscape:pagecheckerboard="0"
     inkscape:document-units="mm"
     showgrid="false"
     inkscape:zoom="0.53165938"
     inkscape:cx="303.76592"
     inkscape:cy="393.10883"
     inkscape:window-width="1920"
     inkscape:window-height="1163"
     inkscape:window-x="1920"
     inkscape:window-y="0"
     inkscape:window-maximized="1"
     inkscape:current-layer="layer1">
    <inkscape:grid
       type="xygrid"
       id="grid13234"
       originx="-1.7236713"
       originy="-86.393227" />
  </sodipodi:namedview>
  <defs
     id="defs2" />
  <g
     inkscape:label="Layer 1"
     inkscape:groupmode="layer"
     id="layer1"
     transform="translate(-1.7236713,-86.393229)">
    <path
       id="path12703"
       style="fill:none;fill-opacity:1;stroke:#000000;stroke-width:3.1;stroke-linecap:round;stroke-linejoin:round;stroke-miterlimit:6;stroke-dasharray:none;paint-order:stroke fill markers"
       d="m 116.66773,214.94659 c 21.18402,-11.3677 41.70819,-12.87704 41.70819,-12.87704 M 115.82998,187.6279 c 21.18402,-11.3677 41.70819,-12.87704 41.70819,-12.87704 m -41.33257,26.80188 c 21.18402,-11.3677 41.70819,-12.87704 41.70819,-12.87704 M 115.4198,173.56089 c 21.18402,-11.3677 41.70819,-12.87704 41.70819,-12.87704 m 0.58179,-52.99472 c -23.23364,5.53365 -44.3086,21.80193 -44.34397,21.50842 l 0.39925,30.20095 c 29.10368,-14.66838 45.07277,-16.1554 45.07277,-16.1554 z M 4.1236714,264.72671 v -137.7341 m 0,137.7341 101.5491686,-0.75821 m 100.24778,0.75821 -100.24778,-0.75821 M 4.1236714,126.99261 h 9.0596176 m 177.618901,0 h 15.11843 V 264.72672 M 105.15041,126.07142 105.67284,263.9685 M 38.274146,214.96831 c 36.685045,1.66605 55.793691,16.71063 55.793691,16.71063 m -0.738009,-46.72398 0.738009,46.72398 m -56.012025,-59.93983 0.218334,43.2292 m -0.218334,-43.2292 C 74.61761,171.13038 93.25585,184.88098 93.25585,184.88098 M 38.801443,141.73199 c 36.561798,-0.60873 55.200038,13.14187 55.200038,13.14187 m -55.448152,1.35374 c 36.561798,-0.60873 55.200038,13.14187 55.200038,13.14187 m -54.43683,-42.44455 c 36.561798,-0.60873 55.200038,13.14187 55.200038,13.14187 M 13.636534,112.66428 c 3.693371,0.0715 7.55234,0.2781 11.502849,0.5912 M 14.170841,250.57324 c 46.446806,-3.71117 91.501999,13.39526 91.501999,13.39526 M 25.961155,238.57875 c 49.920656,-0.15698 79.711685,25.38975 79.711685,25.38975 M 25.438725,100.68168 c 41.404711,-0.791821 79.711685,25.38974 79.711685,25.38974 m 85.5568,116.94813 c -45.9364,-4.8169 -85.03437,20.94895 -85.03437,20.94895 m 84.5383,-158.87238 c -6.99255,0.34393 -13.77354,1.10943 -20.23697,2.15562 m -64.82376,18.81968 c 0,0 16.42613,-22.1165 63.78763,-37.928259 l 0.52243,137.897069 c -44.86026,5.87098 -63.78763,37.92827 -63.78763,37.92827 m 84.51194,-158.84602 0.52243,137.89707 M 25.438725,100.68168 l 0.52243,137.89707 m -12.312744,-125.90259 0.05602,14.7867 0.46641,123.11038" />
  </g>
</svg>
